<?xml version="1.0" standalone="no"?>
<!DOCTYPE svg PUBLIC "-//W3C//DTD SVG 20010904//EN"
 "http://www.w3.org/TR/2001/REC-SVG-20010904/DTD/svg10.dtd">
<svg version="1.0" xmlns="http://www.w3.org/2000/svg"
 width="366.000000pt" height="366.000000pt" viewBox="0 0 366.000000 366.000000"
 preserveAspectRatio="xMidYMid meet">
<metadata>
Created by potrace 1.11, written by Peter Selinger 2001-2013
</metadata>
<g transform="translate(0.000000,366.000000) scale(0.100000,-0.100000)"
fill="#000000" stroke="none">
<path d="M1770 3613 c-762 -33 -1408 -523 -1638 -1244 -36 -112 -68 -263 -77
-369 -8 -82 -8 -284 0 -340 2 -19 7 -57 11 -85 3 -27 8 -59 10 -70 2 -11 6
-32 9 -48 33 -179 151 -455 267 -624 306 -444 747 -710 1293 -778 57 -7 284
-7 365 0 79 7 242 41 337 69 565 169 1022 626 1190 1190 17 56 15 47 42 176
49 234 45 476 -13 750 -25 116 -98 308 -163 430 -232 432 -636 754 -1104 880
-148 40 -219 50 -444 63 -16 1 -55 1 -85 0z m240 -77 c56 -6 63 -7 172 -27
148 -26 411 -130 548 -217 281 -179 502 -423 640 -707 50 -104 103 -245 121
-324 17 -73 19 -84 25 -121 3 -19 7 -41 10 -49 21 -63 22 -484 0 -519 -2 -4
-7 -28 -10 -53 -3 -25 -15 -79 -26 -120 -11 -41 -22 -81 -24 -89 -2 -8 -15
-44 -29 -80 -233 -612 -785 -1040 -1428 -1106 -156 -16 -389 -5 -519 25 -25 5
-56 12 -70 15 -54 10 -200 61 -290 101 -472 210 -828 630 -960 1132 -11 42
-23 97 -26 122 -3 25 -8 49 -10 52 -2 3 -7 39 -11 80 -49 510 117 994 471
1366 270 284 653 474 1046 518 30 4 56 7 57 9 5 4 260 -2 313 -8z"/>
<path d="M1580 3393 c0 -14 2 -15 9 -5 5 8 17 12 27 10 17 -3 19 -13 19 -78 1
-58 -3 -77 -15 -82 -8 -4 5 -6 30 -6 25 0 37 2 27 5 -15 4 -17 16 -16 84 1 76
2 79 25 79 13 0 24 -5 24 -11 0 -5 5 -7 10 -4 24 15 -6 25 -71 25 -59 0 -69
-2 -69 -17z"/>
<path d="M1749 3396 c14 -16 12 -135 -2 -153 -7 -10 -1 -13 24 -12 19 0 28 3
22 6 -8 2 -13 22 -13 44 l0 39 43 0 43 0 0 -37 c-1 -24 -7 -41 -16 -45 -8 -4
3 -7 25 -7 22 0 33 3 25 7 -22 10 -22 149 0 162 11 7 4 10 -25 10 -30 -1 -36
-3 -24 -10 9 -5 15 -21 15 -37 -2 -25 -6 -28 -44 -31 -42 -3 -42 -3 -42 32 0
19 6 37 13 39 6 3 -3 6 -22 6 -28 1 -31 -1 -22 -13z"/>
<path d="M1929 3401 c19 -12 19 -150 0 -162 -9 -6 10 -9 52 -9 51 0 66 3 66
15 0 11 -4 12 -13 4 -7 -6 -25 -9 -41 -7 -25 3 -28 7 -28 38 0 31 3 35 27 35
15 1 30 4 34 8 4 4 -9 7 -28 7 -35 0 -36 2 -35 33 2 27 6 32 31 35 16 2 32 -2
37 -10 7 -10 9 -9 9 5 0 14 -10 17 -62 17 -39 0 -58 -4 -49 -9z"/>
<path d="M1181 2993 c14 -3 17 -18 16 -81 0 -42 -6 -80 -11 -84 -6 -4 10 -8
36 -8 50 0 78 18 78 51 0 10 -8 24 -19 31 -18 11 -18 12 -1 31 18 19 16 45 -4
59 -6 4 -33 7 -61 7 -27 -1 -43 -3 -34 -6z m87 -15 c15 -19 -4 -58 -28 -58
-16 0 -20 6 -20 35 0 28 4 35 19 35 10 0 23 -6 29 -12z m-4 -84 c21 -20 20
-50 0 -58 -35 -13 -44 -7 -44 34 0 44 16 52 44 24z"/>
<path d="M1397 2986 c-4 -9 2 -31 13 -49 30 -48 26 -60 -16 -55 -27 3 -38 0
-45 -14 -6 -12 -6 -18 1 -18 5 0 10 5 10 10 0 17 80 12 87 -6 3 -9 0 -20 -8
-25 -10 -6 -1 -9 25 -9 33 0 37 2 25 13 -9 6 -28 44 -44 82 -33 81 -40 92 -48
71z"/>
<path d="M1543 2988 c-43 -21 -47 -110 -7 -145 25 -23 87 -32 98 -15 2 4 -13
6 -34 4 -32 -3 -41 0 -55 21 -36 56 -10 137 45 137 17 0 33 -7 39 -17 9 -16
10 -16 11 -2 0 29 -54 38 -97 17z"/>
<path d="M1678 2993 c8 -3 12 -30 12 -83 0 -53 -4 -80 -12 -83 -7 -3 2 -6 21
-6 25 -1 31 2 24 12 -12 16 -15 67 -4 67 5 0 20 -15 35 -34 18 -24 22 -36 13
-39 -6 -3 6 -6 28 -6 35 0 38 1 20 11 -11 7 -28 22 -38 35 -10 13 -25 29 -32
37 -8 7 -11 17 -7 22 4 5 -1 2 -10 -5 -16 -12 -18 -10 -18 27 0 30 4 42 18 45
9 3 -1 5 -23 5 -22 0 -34 -2 -27 -5z"/>
<path d="M1774 2979 c0 -16 2 -18 11 -6 5 7 17 16 25 20 9 3 5 6 -10 6 -20 1
-26 -4 -26 -20z"/>
<path d="M1868 2989 c-25 -14 -22 -51 3 -69 55 -39 62 -46 55 -68 -9 -26 -53
-31 -62 -7 -4 8 -11 12 -17 8 -14 -8 21 -33 48 -33 25 0 55 29 55 53 0 10 -18
30 -40 45 -27 18 -39 33 -37 47 3 25 53 34 60 10 4 -12 5 -11 3 2 -1 21 -42
28 -68 12z"/>
<path d="M1970 2983 c0 -14 2 -15 9 -5 4 8 19 12 31 10 23 -3 24 -7 22 -77 -1
-48 -6 -77 -14 -83 -8 -4 3 -8 27 -8 29 0 36 3 25 10 -10 6 -15 30 -16 84 -1
71 1 76 21 76 11 0 26 -5 31 -10 7 -7 11 -6 11 5 0 12 -14 15 -74 15 -63 0
-73 -2 -73 -17z"/>
<path d="M2198 2988 c-3 -7 4 -26 14 -43 27 -45 24 -65 -11 -65 -16 0 -31 5
-33 10 -2 6 -9 -4 -15 -22 -11 -28 -10 -30 1 -15 9 11 27 17 56 17 40 0 42 -2
38 -25 -5 -22 -2 -25 26 -25 18 0 26 3 19 8 -7 4 -26 41 -44 82 -34 83 -45 98
-51 78z"/>
<path d="M2354 2990 c-68 -27 -51 -152 22 -166 50 -9 74 3 74 36 0 16 6 31 13
33 6 3 -4 6 -23 6 -19 0 -30 -3 -25 -7 6 -4 11 -18 10 -32 0 -36 -46 -40 -72
-6 -25 32 -23 101 4 121 25 20 63 18 79 -2 12 -16 13 -16 14 -2 0 28 -51 38
-96 19z"/>
<path d="M2492 2986 c20 -19 17 -144 -3 -157 -9 -6 9 -9 52 -9 52 0 66 3 66
15 0 8 -4 15 -9 15 -4 0 -8 -4 -8 -10 0 -11 -59 -14 -61 -2 -1 4 -2 22 -4 40
-2 33 -1 34 30 30 21 -2 31 0 29 7 -3 6 -17 11 -31 10 -24 0 -27 4 -29 33 -1
30 1 32 32 32 18 0 35 -6 37 -12 3 -8 6 -6 6 5 1 14 -8 17 -60 17 -51 0 -58
-2 -47 -14z"/>
<path d="M2180 2939 c-7 -11 -10 -23 -7 -25 2 -2 9 7 15 21 14 30 7 33 -8 4z"/>
<path d="M1330 2830 c-12 -8 -10 -10 8 -10 13 0 20 4 17 10 -7 12 -6 12 -25 0z"/>
<path d="M2128 2823 c6 -2 18 -2 25 0 6 3 1 5 -13 5 -14 0 -19 -2 -12 -5z"/>
<path d="M2393 2647 c-49 -50 -237 -284 -299 -369 -64 -89 -70 -114 -49 -183
l15 -50 -95 -140 c-52 -77 -105 -152 -117 -167 l-23 -28 -112 164 c-108 157
-124 188 -104 201 19 11 23 110 7 173 -25 100 -62 161 -150 248 -92 91 -186
145 -264 152 -66 5 -85 -17 -90 -107 -8 -135 66 -320 169 -421 70 -69 135
-102 216 -109 l62 -6 57 -80 c32 -44 86 -120 120 -169 l63 -90 -40 -55 c-132
-186 -230 -299 -348 -405 -69 -62 -132 -125 -140 -139 -12 -22 -12 -36 -2 -82
14 -61 36 -83 79 -79 15 1 39 2 54 3 49 2 76 44 139 216 32 87 68 159 121 245
59 96 163 250 168 249 7 0 133 -195 191 -294 25 -44 70 -142 100 -219 62 -161
86 -192 153 -197 74 -6 87 1 107 58 27 79 14 108 -79 190 -161 143 -208 193
-317 338 -61 83 -115 156 -119 163 -4 7 30 64 88 145 163 228 147 211 204 213
90 2 108 22 293 334 144 241 133 220 120 220 -5 0 -80 -99 -165 -220 -114
-159 -161 -218 -172 -213 -18 7 -29 -12 156 258 155 227 154 225 143 225 -4 0
-80 -101 -168 -225 -100 -140 -166 -223 -175 -222 -8 1 -15 5 -15 9 0 3 70
109 155 234 167 246 166 244 153 244 -4 0 -80 -101 -168 -224 -88 -124 -165
-227 -172 -230 -37 -15 -4 44 134 243 85 123 152 225 150 227 -2 2 -17 -11
-34 -29z"/>
<path d="M652 1064 c-63 -41 -111 -78 -108 -81 3 -4 29 8 58 26 l51 32 21 -25
c12 -15 32 -27 46 -28 25 -2 79 27 81 43 1 5 2 15 3 22 2 10 -31 87 -37 87 -1
0 -53 -34 -115 -76z m128 20 c17 -30 7 -51 -33 -74 -25 -14 -28 -13 -54 13
-24 24 -26 29 -12 37 9 5 27 18 40 29 32 27 43 26 59 -5z"/>
<path d="M2880 1123 c0 -5 9 -23 21 -42 11 -19 25 -45 30 -58 l9 -24 -73 7
c-39 3 -68 2 -64 -2 4 -4 41 -11 82 -15 65 -6 82 -12 126 -44 27 -21 53 -34
57 -30 4 3 -1 12 -10 18 -89 61 -100 72 -130 133 -28 56 -48 80 -48 57z"/>
<path d="M819 1018 c-8 -7 -54 -46 -102 -87 -49 -40 -86 -75 -83 -78 3 -3 26
12 52 33 l46 38 19 -23 c27 -33 24 -44 -21 -85 -40 -36 -47 -46 -32 -46 14 0
82 70 82 84 0 8 13 17 29 21 29 6 64 38 73 65 6 17 -14 61 -35 79 -12 9 -18 9
-28 -1z m51 -66 c0 -19 -46 -62 -67 -62 -10 0 -27 10 -37 22 -19 22 -19 22 24
61 l44 38 18 -23 c10 -13 18 -29 18 -36z"/>
<path d="M1561 978 c1 -30 2 -31 8 -8 3 14 15 26 26 28 32 6 31 12 -3 12 -30
0 -32 -2 -31 -32z"/>
<path d="M1643 1003 c-22 -8 -14 -50 13 -72 26 -20 29 -51 6 -59 -6 -2 -16 7
-21 20 -10 23 -10 23 -10 1 -1 -22 30 -40 49 -28 20 12 10 54 -16 71 -16 11
-24 24 -22 37 4 30 26 33 38 5 l10 -23 -3 25 c-2 24 -20 34 -44 23z"/>
<path d="M1718 999 c14 -5 20 -13 16 -20 -4 -8 -3 -9 5 -5 6 4 9 11 6 16 -3 5
5 11 17 13 13 2 3 5 -22 5 -37 1 -41 -1 -22 -9z"/>
<path d="M1857 1003 c-4 -3 -7 -13 -7 -22 0 -11 3 -10 15 5 12 16 16 17 24 5
11 -17 5 -37 -21 -70 -28 -36 -24 -61 10 -60 23 2 24 2 5 6 -24 5 -31 27 -12
39 6 3 18 22 26 41 11 27 11 38 2 49 -12 15 -31 18 -42 7z"/>
<path d="M1925 999 c-9 -13 -8 -93 1 -121 7 -23 38 -20 40 5 2 13 1 14 -3 2
-11 -36 -28 -6 -28 50 0 59 19 88 28 43 5 -21 5 -21 4 2 -2 26 -30 39 -42 19z"/>
<path d="M1996 994 c-9 -24 -7 -31 4 -14 7 11 10 -6 11 -55 1 -38 4 -57 6 -42
4 23 9 28 24 24 16 -4 18 -3 9 8 -9 11 -7 19 12 38 12 13 24 31 24 40 3 29
-10 19 -30 -24 -27 -56 -36 -57 -36 -5 0 46 -12 61 -24 30z"/>
<path d="M2747 942 c-15 -15 -27 -31 -27 -34 0 -11 199 -178 203 -171 2 5 -15
24 -39 43 -23 19 -43 38 -43 43 -1 12 38 47 54 47 8 0 33 -16 55 -36 22 -20
40 -32 40 -26 0 17 -69 72 -91 72 -13 0 -24 10 -31 30 -10 29 -51 60 -81 60
-7 0 -25 -13 -40 -28z m92 -13 c24 -23 26 -46 7 -71 -18 -24 -25 -23 -71 16
l-40 34 23 25 c26 27 48 26 81 -4z"/>
<path d="M2077 953 c-10 -9 -9 -23 1 -23 5 0 9 7 9 15 0 17 -1 18 -10 8z"/>
<path d="M1730 940 c0 -5 5 -10 11 -10 5 0 7 5 4 10 -3 6 -8 10 -11 10 -2 0
-4 -4 -4 -10z"/>
<path d="M1967 935 c-4 -8 -3 -16 1 -19 4 -3 9 4 9 15 2 23 -3 25 -10 4z"/>
<path d="M1560 932 c0 -5 14 -7 30 -4 17 2 30 6 30 8 0 2 -13 4 -30 4 -16 0
-30 -4 -30 -8z"/>
<path d="M828 829 c-49 -49 -88 -93 -88 -97 0 -12 59 -66 65 -61 3 3 -9 18
-25 34 l-30 29 37 38 c20 21 42 38 48 38 5 0 19 -11 29 -25 10 -14 24 -25 29
-25 6 0 -3 15 -21 33 l-32 33 39 38 c39 38 40 39 65 22 15 -9 26 -21 26 -26 0
-6 5 -10 12 -10 7 0 -3 16 -22 35 -19 19 -36 35 -39 34 -4 0 -45 -40 -93 -90z"/>
<path d="M2072 898 c5 -35 15 -46 14 -14 -1 14 -5 29 -10 33 -4 4 -6 -4 -4
-19z"/>
<path d="M1561 888 c-1 -25 2 -28 32 -27 29 2 29 2 5 6 -18 3 -28 12 -31 26
-4 18 -5 17 -6 -5z"/>
<path d="M1730 901 c0 -6 4 -13 10 -16 6 -3 7 1 4 9 -7 18 -14 21 -14 7z"/>
<path d="M2671 860 c-17 -17 -31 -34 -31 -38 1 -4 41 -49 89 -100 l89 -93 36
32 c20 17 34 34 31 37 -3 3 -19 -8 -36 -24 l-30 -29 -41 44 -40 45 34 28 c18
15 28 28 23 28 -6 0 -22 -11 -36 -24 l-26 -24 -38 38 c-35 36 -43 70 -16 70 6
0 15 9 21 20 15 27 8 25 -29 -10z"/>
<path d="M916 739 c-42 -55 -76 -105 -74 -110 2 -6 28 22 57 61 30 39 55 69
57 67 2 -2 -12 -42 -31 -90 -18 -48 -30 -87 -25 -87 6 0 99 64 148 103 24 19
12 -1 -43 -69 -30 -38 -50 -71 -44 -73 6 -2 15 3 20 10 12 21 38 55 96 128 29
36 49 67 43 69 -5 2 -49 -26 -97 -62 -48 -35 -89 -61 -91 -56 -2 4 15 52 38
105 22 54 40 99 40 101 0 18 -28 -11 -94 -97z"/>
<path d="M2617 813 c-3 -4 15 -53 39 -107 24 -55 43 -100 42 -102 -2 -1 -43
29 -91 68 -49 38 -91 67 -94 64 -4 -3 5 -14 18 -25 13 -10 60 -48 104 -85 98
-81 112 -85 81 -20 -8 16 -31 70 -51 119 -41 99 -41 100 -48 88z"/>
<path d="M1087 634 c-72 -111 -84 -134 -71 -134 12 0 147 217 142 229 -1 5
-34 -38 -71 -95z"/>
<path d="M2480 716 c0 -3 22 -37 48 -78 26 -40 58 -90 71 -110 12 -21 27 -38
33 -38 10 0 -3 23 -85 153 -42 65 -67 92 -67 73z"/>
<path d="M1121 608 c-28 -57 -51 -111 -51 -120 0 -10 12 -25 26 -35 23 -15 29
-15 51 -2 26 15 142 219 125 219 -6 0 -34 -45 -63 -100 -29 -55 -60 -102 -67
-105 -24 -9 -52 5 -52 26 0 20 44 113 87 182 16 26 19 37 10 37 -8 0 -37 -46
-66 -102z"/>
<path d="M2380 653 c0 -7 117 -222 125 -231 2 -2 25 9 51 24 26 15 42 30 36
32 -7 2 -27 -6 -46 -17 l-33 -21 -59 110 c-52 97 -74 127 -74 103z"/>
<path d="M1245 525 c-27 -69 -45 -128 -42 -132 4 -3 12 7 18 23 6 16 22 56 35
89 19 50 30 64 25 33 0 -4 -3 -46 -6 -95 l-5 -88 22 29 c13 15 42 53 66 83 23
31 42 53 42 50 0 -6 -60 -158 -68 -171 -2 -5 1 -7 8 -4 13 4 109 238 103 251
-5 8 -24 -14 -101 -116 -44 -58 -56 -66 -54 -37 1 14 14 149 17 178 8 62 -13
31 -60 -93z"/>
<path d="M2310 632 c-19 -9 -36 -17 -38 -18 -4 -2 71 -182 94 -226 l14 -27 40
18 c22 10 44 22 48 26 6 7 -2 6 -63 -11 -17 -4 -25 4 -42 39 -24 50 -23 52 27
74 19 8 30 17 24 19 -6 3 -26 -2 -44 -10 l-34 -14 -23 51 c-13 27 -22 51 -21
52 2 1 18 7 36 15 35 13 52 30 30 29 -7 0 -29 -8 -48 -17z"/>
<path d="M2168 583 c-24 -6 -23 -22 13 -132 48 -149 43 -142 79 -130 61 22 66
50 29 163 -33 102 -52 117 -121 99z m82 -41 c18 -39 50 -144 50 -164 0 -10
-13 -24 -30 -33 -30 -15 -30 -15 -45 21 -8 20 -15 42 -15 48 0 6 -11 41 -24
78 l-25 67 27 9 c35 12 47 7 62 -26z"/>
<path d="M1534 513 c-5 -26 -9 -50 -9 -53 -1 -3 -5 -27 -10 -55 -4 -27 -11
-59 -15 -71 -5 -11 -5 -27 0 -34 7 -12 30 68 30 106 0 14 19 13 67 -1 7 -2 15
0 18 5 3 5 -12 13 -35 16 -44 7 -48 18 -30 85 10 36 11 37 47 28 35 -7 52 -5
42 5 -3 3 -25 8 -51 11 l-47 6 -7 -48z"/>
<path d="M1957 542 c-17 -3 -18 -11 -13 -70 6 -56 15 -117 24 -154 1 -5 2 -18
2 -29 0 -19 4 -21 36 -16 50 8 64 23 64 70 0 57 -20 163 -34 182 -12 17 -47
24 -79 17z m59 -20 c18 -12 28 -52 38 -165 4 -43 -13 -67 -48 -67 -21 0 -24 6
-30 58 -4 31 -8 68 -11 82 -12 74 -12 89 -2 94 18 7 41 6 53 -2z"/>
<path d="M1676 525 c-17 -18 -24 -52 -30 -147 -5 -84 14 -117 64 -110 44 6 48
16 57 153 5 82 4 87 -18 103 -29 20 -53 20 -73 1z m72 -22 c9 -18 8 -83 -3
-161 -7 -51 -42 -75 -71 -51 -13 11 -15 28 -11 100 3 47 10 96 16 108 14 26
57 28 69 4z"/>
<path d="M1820 523 c-18 -13 -20 -25 -20 -111 0 -58 5 -107 13 -122 27 -54
107 -24 107 40 0 17 -4 30 -9 30 -4 0 -8 -8 -8 -17 0 -41 -4 -50 -28 -61 -19
-9 -27 -8 -40 4 -8 9 -15 21 -16 27 -10 116 -7 177 7 191 40 40 74 5 74 -75 0
-32 4 -59 9 -59 13 0 5 128 -9 144 -16 21 -57 25 -80 9z"/>
</g>
</svg>
